<svg width="56" height="56" viewBox="0 0 56 56" fill="none" xmlns="http://www.w3.org/2000/svg">
  <g filter="url(#filter0_d_1053_1660)">
  <circle cx="28" cy="23" r="23" fill="url(#paint0_linear_1053_1660)"/>
  <circle cx="28" cy="23" r="22.5" stroke="#2B66F5"/>
  </g>
  <path fill-rule="evenodd" clip-rule="evenodd" d="M29 16C29 15.4477 28.5523 15 28 15C27.4477 15 27 15.4477 27 16V22H21C20.4477 22 20 22.4477 20 23C20 23.5523 20.4477 24 21 24H27V30C27 30.5523 27.4477 31 28 31C28.5523 31 29 30.5523 29 30V24H35C35.5523 24 36 23.5523 36 23C36 22.4477 35.5523 22 35 22H29V16Z" fill="white"/>
  <defs>
  <filter id="filter0_d_1053_1660" x="1" y="0" width="54" height="54" filterUnits="userSpaceOnUse" color-interpolation-filters="sRGB">
  <feFlood flood-opacity="0" result="BackgroundImageFix"/>
  <feColorMatrix in="SourceAlpha" type="matrix" values="0 0 0 0 0 0 0 0 0 0 0 0 0 0 0 0 0 0 127 0" result="hardAlpha"/>
  <feOffset dy="4"/>
  <feGaussianBlur stdDeviation="2"/>
  <feComposite in2="hardAlpha" operator="out"/>
  <feColorMatrix type="matrix" values="0 0 0 0 0 0 0 0 0 0 0 0 0 0 0 0 0 0 0.25 0"/>
  <feBlend mode="normal" in2="BackgroundImageFix" result="effect1_dropShadow_1053_1660"/>
  <feBlend mode="normal" in="SourceGraphic" in2="effect1_dropShadow_1053_1660" result="shape"/>
  </filter>
  <linearGradient id="paint0_linear_1053_1660" x1="43" y1="39.5" x2="11.5" y2="7.99998" gradientUnits="userSpaceOnUse">
  <stop stop-color="#2B66F5"/>
  <stop offset="1" stop-color="#4BA6FE"/>
  </linearGradient>
  </defs>
</svg>