<svg width="36" height="36" viewBox="0 0 36 36" fill="none" xmlns="http://www.w3.org/2000/svg">
<path d="M30.0055 17.889C28.0593 19.249 24.5813 18.7965 24.3333 17.4984L22.3666 20.9898C23.8766 22.2169 28.3878 22.5084 30.2222 21.0259C32.4192 19.2504 33.594 16.8379 32.6972 15.993C31.8005 15.1482 31.9517 16.529 30.0055 17.889Z" fill="#3982FA"/>
<path d="M8.58811 24.7915C10.1258 26.4061 13.173 24.5717 14.2132 22.6616L15.8308 26.4395C14.3904 30.1502 10.1805 29.303 8.10576 27.605C6.44594 26.2467 6.09324 26.9005 4.72876 27.6408C3.36428 28.3811 2.70619 27.4819 3.12505 26.1812C3.54391 24.8804 5.82158 21.8865 8.58811 24.7915Z" fill="#3982FA"/>
<path d="M20.0387 17.2451C20.6707 19.6858 22.6652 16.2736 22.7479 13.9982L24.484 13.154C24.6023 12.8163 24.708 12.8724 24.6927 13.0525L24.484 13.154C24.2856 13.7201 24.0519 15.3929 24.2942 19.4435C24.6927 26.1063 20.0388 27.925 18.5689 27.6012C19.3044 32.4597 22.2088 30.5798 23.166 31.3385C24.1177 32.0929 24.2942 33.5809 22.0627 33.9546C19.9482 34.3087 16.3622 32.6466 13.2486 27.798C10.8342 24.0384 13.1526 21.6274 15.0211 21.015C16.4503 20.5096 18.3582 19.4462 17.4654 17.8842C16.7483 16.6296 13.42 16.7631 10.6617 19.0055C9.55837 19.566 7.71959 19.3791 9.92613 16.7631C12.1327 14.1471 18.7527 12.2782 20.0387 17.2451Z" fill="url(#paint0_linear_2218_1135)"/>
<path d="M23.143 5.57028C22.418 4.05204 21.288 2.43494 19.271 2.04317C19.6369 4.64455 18.9089 7.10908 18.2912 8.24697C15.5519 13.2937 17.616 17.3359 21.4776 18.6742C25.1324 19.9409 29.0161 18.1645 29.9627 15.344C30.9092 12.5236 29.9627 9.33095 26.5627 8.46508C24.6672 7.80814 23.8681 7.08852 23.143 5.57028Z" fill="url(#paint1_linear_2218_1135)"/>
<ellipse cx="0.85959" cy="0.870599" rx="0.85959" ry="0.870599" transform="matrix(-0.944864 -0.327464 -0.318167 0.948035 28.6208 12.5103)" fill="white"/>
<ellipse cx="0.85959" cy="0.870599" rx="0.85959" ry="0.870599" transform="matrix(-0.944864 -0.327464 -0.318167 0.948035 24.9431 11.3889)" fill="white"/>
<path d="M26.6261 14.9373C25.3021 14.9373 23.9904 14.3144 23.5 14.0029C23.1936 14.5012 22.3967 16.2453 23.6839 16.619C24.9712 16.9928 26.0131 15.8716 26.6261 14.9373Z" fill="white" stroke="white" stroke-width="0.401432" stroke-linejoin="round"/>
<defs>
<linearGradient id="paint0_linear_2218_1135" x1="27.0368" y1="22.4561" x2="12.208" y2="25.9532" gradientUnits="userSpaceOnUse">
<stop stop-color="#2B66F5"/>
<stop offset="0.656282" stop-color="#4BA6FE"/>
</linearGradient>
<linearGradient id="paint1_linear_2218_1135" x1="16.8931" y1="9.12832" x2="30.5145" y2="13.6997" gradientUnits="userSpaceOnUse">
<stop stop-color="#2B66F5"/>
<stop offset="1" stop-color="#4BA6FE"/>
</linearGradient>
</defs>
</svg>
