<svg width="60" height="60" viewBox="0 0 60 60" fill="none" xmlns="http://www.w3.org/2000/svg">
<path d="M3.68197 25.8334C1.87509 24.1342 7.56233 21.6389 9.96572 25.252C12.0154 28.3333 9.96572 31.6666 18.2258 30.9165L17.4514 38.5636C4.51534 38.5636 8.682 30.5356 3.68197 25.8334Z" fill="#3982FA"/>
<path d="M37.0588 26.7822L38.6431 22.0647C40.9577 22.1704 41.8465 21.8187 46.6537 19.5023C51.4609 17.1859 53.5761 12.4646 56.3452 14.3659C57.8485 15.398 56.2967 18.535 53.7219 20.5861C47.6995 25.3837 42.5714 26.1638 37.0588 26.7822Z" fill="#3982FA"/>
<path d="M15.5881 32.6987C16.9177 29.3189 21.123 26.2207 32.6067 26.2207C35.3902 26.2207 40.7021 27.0657 46.0354 27.0656C47.6223 27.0656 57.2063 23.3794 56.6667 25.8329C55.8604 29.4995 49.1153 31.2663 44.1793 32.3444C40.9888 33.0412 38.6796 36.5177 36.6667 38.3329C33.414 41.266 32.5 40.8329 25 40.834C20.6039 47.5988 21.0309 49.8847 22.8923 52.7013C23.9705 54.3328 21.6691 55.6337 19.1695 54.6728C14.7734 52.9829 15.1807 46.5049 16.3859 42.8383C17.6468 39.002 14.2586 36.0786 15.5881 32.6987Z" fill="url(#paint0_linear_1053_2076)" stroke="url(#paint1_linear_1053_2076)" stroke-width="0.566341"/>
<path d="M36.5103 6.81462C34.0016 4.54926 29.1081 4.83287 25.1437 5.39907C31.0903 7.94775 33.4038 11.0625 31.3734 14.7434C28.8743 19.2741 30.5638 26.0244 36.5103 28.0524C42.1386 29.9719 48.1192 27.5632 49.5769 23.2892C51.0345 19.0152 50.0627 13.7561 43.8329 12.1949C37.6032 10.6336 39.019 9.07999 36.5103 6.81462Z" fill="url(#paint2_linear_1053_2076)"/>
<circle cx="1.32146" cy="1.32146" r="1.32146" transform="matrix(-0.946471 -0.32279 -0.32279 0.946471 47.5106 18.9945)" fill="white"/>
<circle cx="1.32146" cy="1.32146" r="1.32146" transform="matrix(-0.946471 -0.32279 -0.32279 0.946471 41.8472 17.2955)" fill="white"/>
<path d="M44.4391 22.6717C42.4003 22.6717 40.3803 21.7278 39.6252 21.2559C39.1532 22.011 37.9261 24.6539 39.9084 25.2202C41.8906 25.7866 43.4952 24.0876 44.4391 22.6717Z" fill="white" stroke="white" stroke-width="0.566341" stroke-linejoin="round"/>
<ellipse cx="36.1873" cy="19.2742" rx="1.9822" ry="0.849512" transform="rotate(18.8728 36.1873 19.2742)" fill="white" fill-opacity="0.3"/>
<ellipse cx="47.116" cy="23.2678" rx="1.9822" ry="0.849512" transform="rotate(18.8728 47.116 23.2678)" fill="white" fill-opacity="0.3"/>
<defs>
<linearGradient id="paint0_linear_1053_2076" x1="56.6886" y1="39.9956" x2="15.2731" y2="39.9956" gradientUnits="userSpaceOnUse">
<stop stop-color="#2B66F5"/>
<stop offset="1" stop-color="#4BA6FE"/>
</linearGradient>
<linearGradient id="paint1_linear_1053_2076" x1="56.6886" y1="39.9956" x2="15.2731" y2="39.9956" gradientUnits="userSpaceOnUse">
<stop stop-color="#2B66F5"/>
<stop offset="1" stop-color="#4BA6FE"/>
</linearGradient>
<linearGradient id="paint2_linear_1053_2076" x1="50.1714" y1="16.8603" x2="25.1437" y2="16.8603" gradientUnits="userSpaceOnUse">
<stop stop-color="#2B66F5"/>
<stop offset="1" stop-color="#4BA6FE"/>
</linearGradient>
</defs>
</svg>
