<svg width="60" height="60" viewBox="0 0 60 60" fill="none" xmlns="http://www.w3.org/2000/svg">
<path d="M50.0092 29.8149C46.7655 32.0816 40.9688 31.3275 40.5554 29.1639L37.2776 34.983C39.7944 37.0281 47.313 37.5139 50.3703 35.0432C54.0319 32.084 55.99 28.063 54.4954 26.655C53.0008 25.2469 53.2529 27.5482 50.0092 29.8149Z" fill="#3982FA"/>
<path d="M14.3135 41.3191C16.8763 44.0101 21.9551 40.9527 23.6887 37.7692L26.3846 44.0658C23.9839 50.2503 16.9676 48.8382 13.5096 46.0083C10.7432 43.7444 10.1554 44.8341 7.88127 46.0679C5.60714 47.3018 4.51032 45.8031 5.20842 43.6352C5.90652 41.4673 9.70264 36.4774 14.3135 41.3191Z" fill="#3982FA"/>
<path d="M33.3979 28.7418C34.4511 32.8096 37.7754 27.1226 37.9132 23.3302L40.8067 21.9232C41.0039 21.3604 41.1801 21.4539 41.1545 21.7541L40.8067 21.9232C40.4761 22.8667 40.0865 25.6548 40.4903 32.4057C41.1545 43.5104 33.398 46.5416 30.9481 46.0019C32.174 54.0994 37.0146 50.9662 38.61 52.2307C40.1962 53.4881 40.4903 55.9681 36.7711 56.5909C33.247 57.1812 27.2704 54.4108 22.0809 46.33C18.0569 40.064 21.921 36.0456 25.0351 35.025C27.4171 34.1826 30.5971 32.4102 29.1091 29.807C27.9138 27.7159 22.3666 27.9384 17.7695 31.6758C15.9306 32.6099 12.866 32.2984 16.5436 27.9384C20.2211 23.5785 31.2546 20.4636 33.3979 28.7418Z" fill="url(#paint0_linear_1053_2075)"/>
<path d="M38.5717 9.28363C37.3633 6.75323 35.4799 4.05806 32.1182 3.40512C32.7281 7.74076 31.5147 11.8483 30.4853 13.7448C25.9198 22.1559 29.3599 28.893 35.7959 31.1235C41.8874 33.2347 48.3602 30.274 49.9378 25.5733C51.5154 20.8725 49.9378 15.5514 44.2711 14.1083C41.1119 13.0134 39.7801 11.814 38.5717 9.28363Z" fill="url(#paint1_linear_1053_2075)"/>
<ellipse cx="1.43265" cy="1.451" rx="1.43265" ry="1.451" transform="matrix(-0.944864 -0.327464 -0.318167 0.948035 47.7014 20.8503)" fill="white"/>
<ellipse cx="1.43265" cy="1.451" rx="1.43265" ry="1.451" transform="matrix(-0.944864 -0.327464 -0.318167 0.948035 41.5719 18.9814)" fill="white"/>
<path d="M44.3768 24.8952C42.1702 24.8952 39.984 23.8571 39.1667 23.338C38.6559 24.1685 37.3278 27.0753 39.4732 27.6982C41.6186 28.3211 43.3552 26.4524 44.3768 24.8952Z" fill="white" stroke="white" stroke-width="0.669052" stroke-linejoin="round"/>
<defs>
<linearGradient id="paint0_linear_1053_2075" x1="45.0613" y1="37.4267" x2="20.3466" y2="43.2553" gradientUnits="userSpaceOnUse">
<stop stop-color="#2B66F5"/>
<stop offset="0.656282" stop-color="#4BA6FE"/>
</linearGradient>
<linearGradient id="paint1_linear_1053_2075" x1="28.1552" y1="15.2137" x2="50.8575" y2="22.8327" gradientUnits="userSpaceOnUse">
<stop stop-color="#2B66F5"/>
<stop offset="1" stop-color="#4BA6FE"/>
</linearGradient>
</defs>
</svg>
