<svg width="60" height="60" viewBox="0 0 60 60" fill="none" xmlns="http://www.w3.org/2000/svg">
<path d="M43.774 33.4972C39.9393 33.9716 34.4241 30.3074 35.0279 28.266L30.3837 32.1633C31.6646 35.0553 37.9551 38.6173 41.7596 38.1414C46.1581 37.5913 49.7631 34.703 49.0886 32.8197C48.4142 30.9364 47.6086 33.0229 43.774 33.4972Z" fill="#3982FA" stroke="#3982FA" stroke-width="0.492647" stroke-linejoin="round"/>
<path d="M14.7947 45.1661C17.5882 43.0603 18.698 40.0821 19.6945 37.3456L25.8111 40.4453C27.5158 42.7603 23.9153 47.6865 19.6945 49.6791C16.5419 51.1674 15.4832 51.7846 16.0848 53.4138C16.6864 55.0431 11.1405 55.0517 10.3693 52.9879C9.59814 50.9241 9.59795 49.0833 14.7947 45.1661Z" fill="#3982FA" stroke="#3982FA" stroke-width="0.492647" stroke-linejoin="round"/>
<path d="M27.3541 27.0272C31.3672 27.6601 31.0271 24.3041 30.1134 20.7543L32.4485 18.6426C32.4792 18.0664 32.6708 18.1037 32.7292 18.3888L32.4485 18.6426C32.3971 19.6086 32.7977 22.2989 35.0352 28.4364C38.7155 38.5321 32.8534 44.109 30.3999 44.2943C33.7813 51.4487 35.5937 49.2552 37.4427 49.9799C39.2811 50.7005 40.2401 52.9144 36.9123 54.531C33.759 56.0628 27.1057 53.9559 21.5457 46.4758C17.8896 41.5571 18.8011 37.402 20.8978 34.9388C22.3859 33.1906 23.6052 33.0818 22.7027 32.2314C21.0028 30.6296 18.1905 33.4347 15.5592 36.5522C14.8164 37.6212 11.117 38.4997 13.3774 33.4347C15.6379 28.3697 20.2962 25.9143 27.3541 27.0272Z" fill="url(#paint0_linear_1053_2077)"/>
<path d="M32.4485 18.6426C32.3971 19.6086 32.7977 22.2989 35.0352 28.4364C38.7155 38.5321 32.8534 44.109 30.3999 44.2943C33.7813 51.4487 35.5937 49.2552 37.4427 49.9799C39.2811 50.7005 40.2401 52.9144 36.9123 54.531C33.759 56.0628 27.1057 53.9559 21.5457 46.4758C17.8896 41.5571 18.8011 37.402 20.8978 34.9388C22.3859 33.1906 23.6052 33.0818 22.7027 32.2314C21.0028 30.6296 18.1905 33.4347 15.5592 36.5522C14.8164 37.6212 11.117 38.4997 13.3774 33.4347C15.6379 28.3697 20.2962 25.9143 27.3541 27.0272C31.3672 27.6601 31.0271 24.3041 30.1134 20.7543L32.4485 18.6426ZM32.4485 18.6426C32.4792 18.0664 32.6708 18.1037 32.7292 18.3888L32.4485 18.6426Z" stroke="url(#paint1_linear_1053_2077)" stroke-width="0.492647" stroke-linejoin="round"/>
<path d="M30.9443 9.23864C29.276 7.09456 26.9266 4.93253 23.568 5.00161C25.0241 8.97338 24.6839 13.1017 24.0764 15.1035C21.3821 23.9818 26.0377 29.6448 32.6647 30.4389C38.937 31.1905 44.557 27.0725 45.1277 22.3094C45.6984 17.5464 43.1153 12.841 37.385 12.6339C34.132 12.2441 32.6125 11.3827 30.9443 9.23864Z" fill="url(#paint2_linear_1053_2077)"/>
<circle cx="1.40381" cy="1.40381" r="1.40381" transform="matrix(-0.992898 -0.118972 -0.118972 0.992898 42.032 18.3031)" fill="white"/>
<circle cx="1.40381" cy="1.40381" r="1.40381" transform="matrix(-0.992898 -0.118972 -0.118972 0.992898 35.7717 17.7882)" fill="white"/>
<path d="M34.3379 22.3948C35.0364 23.5079 37.7437 25.0119 39.6527 22.8028" stroke="white" stroke-width="0.601632" stroke-linecap="round" stroke-linejoin="round"/>
<defs>
<linearGradient id="paint0_linear_1053_2077" x1="40.7172" y1="31.8067" x2="19.1572" y2="44.2686" gradientUnits="userSpaceOnUse">
<stop stop-color="#2B66F5"/>
<stop offset="0.656282" stop-color="#4BA6FE"/>
</linearGradient>
<linearGradient id="paint1_linear_1053_2077" x1="40.7172" y1="31.8067" x2="19.1572" y2="44.2686" gradientUnits="userSpaceOnUse">
<stop stop-color="#2B66F5"/>
<stop offset="0.62593" stop-color="#4BA6FE"/>
</linearGradient>
<linearGradient id="paint2_linear_1053_2077" x1="45.2051" y1="17.764" x2="23.2987" y2="17.764" gradientUnits="userSpaceOnUse">
<stop stop-color="#2B66F5"/>
<stop offset="1" stop-color="#4BA6FE"/>
</linearGradient>
</defs>
</svg>
