<svg width="32" height="32" viewBox="0 0 32 32" fill="none" xmlns="http://www.w3.org/2000/svg">
  <path d="M17.329 9.35902C17.5399 9.14834 17.8259 9.03001 18.124 9.03001C18.4221 9.03001 18.7081 9.14834 18.919 9.35902L23.749 14.189L28.579 9.35902C28.7165 9.21093 28.8914 9.10267 29.0853 9.04565C29.2792 8.98863 29.4848 8.98496 29.6806 9.03502C29.8764 9.08508 30.0551 9.18702 30.1978 9.3301C30.3405 9.47318 30.442 9.6521 30.4915 9.84802C30.5416 10.0436 30.5381 10.249 30.4814 10.4428C30.4246 10.6365 30.3167 10.8114 30.169 10.949L25.339 15.779L30.169 20.609C30.3171 20.7465 30.4254 20.9214 30.4824 21.1153C30.5394 21.3092 30.5431 21.5148 30.493 21.7106C30.443 21.9064 30.341 22.0851 30.1979 22.2278C30.0548 22.3705 29.8759 22.472 29.68 22.5215C29.4844 22.5716 29.279 22.5681 29.0852 22.5114C28.8915 22.4546 28.7166 22.3467 28.579 22.199L23.749 17.369L18.919 22.199C18.7056 22.3976 18.4235 22.5058 18.1321 22.5008C17.8406 22.4957 17.5624 22.3779 17.356 22.172C17.1501 21.9656 17.0323 21.6874 17.0273 21.396C17.0222 21.1045 17.1304 20.8224 17.329 20.609L22.159 15.779L17.329 10.949C17.1183 10.7381 17 10.4521 17 10.154C17 9.85589 17.1183 9.56996 17.329 9.35902Z" fill="#BDC0C6"/>
</svg>
