<svg width="24" height="24" viewBox="0 0 24 24" fill="none" xmlns="http://www.w3.org/2000/svg">
<path d="M17.0306 12.5302L9.53063 20.0302C9.42573 20.1353 9.29204 20.2068 9.14648 20.2358C9.00092 20.2647 8.85002 20.2499 8.71291 20.1931C8.57579 20.1363 8.45861 20.04 8.37621 19.9166C8.29381 19.7932 8.24988 19.648 8.25 19.4996V4.49961C8.24988 4.35119 8.29381 4.20607 8.37621 4.08263C8.45861 3.95918 8.57579 3.86296 8.71291 3.80615C8.85002 3.74933 9.00092 3.73448 9.14648 3.76347C9.29204 3.79245 9.42573 3.86398 9.53063 3.96899L17.0306 11.469C17.1004 11.5386 17.1557 11.6214 17.1934 11.7124C17.2312 11.8035 17.2506 11.9011 17.2506 11.9996C17.2506 12.0982 17.2312 12.1958 17.1934 12.2868C17.1557 12.3779 17.1004 12.4606 17.0306 12.5302Z" fill="#DBDDE2"/>
</svg>
