<svg width="274" height="52" viewBox="0 0 274 52" fill="none" xmlns="http://www.w3.org/2000/svg">
  <rect y="36" width="274" height="16" rx="8" fill="#DBDDE2"/>
  <rect y="36" width="137" height="16" rx="8" fill="url(#paint0_linear_1175_1573)"/>
  <path d="M104.985 42.936C105.585 42.936 106.125 43.072 106.605 43.344C107.085 43.608 107.461 43.988 107.733 44.484C108.005 44.972 108.141 45.536 108.141 46.176C108.141 46.816 108.001 47.384 107.721 47.88C107.441 48.368 107.041 48.744 106.521 49.008C106.009 49.28 105.413 49.416 104.733 49.416C103.973 49.416 103.273 49.252 102.633 48.924C102.001 48.596 101.545 48.124 101.265 47.508L102.585 46.764C102.769 47.172 103.041 47.484 103.401 47.7C103.761 47.908 104.177 48.012 104.649 48.012C105.265 48.012 105.749 47.848 106.101 47.52C106.453 47.184 106.629 46.736 106.629 46.176C106.629 45.624 106.449 45.18 106.089 44.844C105.729 44.508 105.257 44.34 104.673 44.34C103.857 44.34 103.281 44.708 102.945 45.444H101.565L102.177 39.444H107.793V40.848H103.473L103.149 43.716C103.373 43.468 103.645 43.276 103.965 43.14C104.293 43.004 104.633 42.936 104.985 42.936ZM110.87 46.428C111.278 47.5 112.03 48.036 113.126 48.036C113.766 48.036 114.266 47.892 114.626 47.604C114.994 47.316 115.178 46.944 115.178 46.488C115.178 46.008 114.986 45.616 114.602 45.312C114.218 45 113.666 44.844 112.946 44.844H111.674V43.548H112.946C113.594 43.548 114.086 43.412 114.422 43.14C114.766 42.868 114.938 42.504 114.938 42.048C114.938 41.608 114.77 41.264 114.434 41.016C114.106 40.768 113.662 40.644 113.102 40.644C112.166 40.644 111.514 41.12 111.146 42.072L109.778 41.556C110.034 40.868 110.438 40.316 110.99 39.9C111.542 39.476 112.246 39.264 113.102 39.264C113.75 39.264 114.326 39.372 114.83 39.588C115.334 39.796 115.73 40.104 116.018 40.512C116.306 40.912 116.45 41.392 116.45 41.952C116.45 42.512 116.31 42.976 116.03 43.344C115.75 43.712 115.386 43.992 114.938 44.184C115.45 44.368 115.866 44.664 116.186 45.072C116.514 45.48 116.678 45.976 116.678 46.56C116.678 47.128 116.526 47.628 116.222 48.06C115.926 48.492 115.51 48.824 114.974 49.056C114.438 49.296 113.822 49.416 113.126 49.416C112.182 49.416 111.406 49.188 110.798 48.732C110.198 48.276 109.766 47.676 109.502 46.932L110.87 46.428ZM120.097 44.628C119.689 44.628 119.313 44.54 118.969 44.364C118.633 44.18 118.365 43.92 118.165 43.584C117.965 43.248 117.865 42.852 117.865 42.396V41.484C117.865 41.036 117.965 40.644 118.165 40.308C118.365 39.972 118.633 39.716 118.969 39.54C119.313 39.356 119.689 39.264 120.097 39.264C120.505 39.264 120.877 39.356 121.213 39.54C121.557 39.716 121.829 39.972 122.029 40.308C122.229 40.644 122.329 41.036 122.329 41.484V42.396C122.329 42.852 122.229 43.248 122.029 43.584C121.829 43.92 121.557 44.18 121.213 44.364C120.877 44.54 120.505 44.628 120.097 44.628ZM120.697 49.236H118.993L125.797 39.444H127.501L120.697 49.236ZM120.097 43.368C120.361 43.368 120.577 43.272 120.745 43.08C120.913 42.888 120.997 42.628 120.997 42.3V41.592C120.997 41.264 120.913 41.004 120.745 40.812C120.577 40.62 120.361 40.524 120.097 40.524C119.833 40.524 119.617 40.62 119.449 40.812C119.289 41.004 119.209 41.264 119.209 41.592V42.3C119.209 42.628 119.289 42.888 119.449 43.08C119.617 43.272 119.833 43.368 120.097 43.368ZM126.349 49.416C125.941 49.416 125.565 49.324 125.221 49.14C124.885 48.964 124.617 48.708 124.417 48.372C124.217 48.036 124.117 47.64 124.117 47.184V46.272C124.117 45.824 124.217 45.432 124.417 45.096C124.617 44.76 124.885 44.504 125.221 44.328C125.565 44.144 125.941 44.052 126.349 44.052C126.757 44.052 127.129 44.144 127.465 44.328C127.809 44.504 128.081 44.76 128.281 45.096C128.481 45.432 128.581 45.824 128.581 46.272V47.184C128.581 47.64 128.481 48.036 128.281 48.372C128.081 48.708 127.809 48.964 127.465 49.14C127.129 49.324 126.757 49.416 126.349 49.416ZM126.349 48.156C126.613 48.156 126.829 48.06 126.997 47.868C127.165 47.676 127.249 47.416 127.249 47.088V46.38C127.249 46.052 127.165 45.792 126.997 45.6C126.829 45.408 126.613 45.312 126.349 45.312C126.085 45.312 125.869 45.408 125.701 45.6C125.541 45.792 125.461 46.052 125.461 46.38V47.088C125.461 47.416 125.541 47.676 125.701 47.868C125.869 48.06 126.085 48.156 126.349 48.156Z" fill="white"/>
  <path d="M133.006 17.8889C131.059 19.2489 127.581 18.7965 127.333 17.4983L125.367 20.9898C126.877 22.2169 131.388 22.5083 133.222 21.0259C135.419 19.2504 136.594 16.8378 135.697 15.993C134.8 15.1481 134.952 16.5289 133.006 17.8889Z" fill="#3982FA"/>
  <path d="M111.588 24.7914C113.126 26.406 116.173 24.5716 117.213 22.6615L118.831 26.4395C117.39 30.1502 113.181 29.3029 111.106 27.605C109.446 26.2466 109.093 26.9004 107.729 27.6408C106.364 28.3811 105.706 27.4818 106.125 26.1811C106.544 24.8804 108.822 21.8865 111.588 24.7914Z" fill="#3982FA"/>
  <path d="M123.039 17.2451C123.671 19.6858 125.665 16.2736 125.748 13.9981L127.484 13.1539C127.602 12.8162 127.708 12.8723 127.693 13.0524L127.484 13.1539C127.286 13.72 127.052 15.3928 127.294 19.4434C127.693 26.1062 123.039 27.925 121.569 27.6011C122.304 32.4596 125.209 30.5797 126.166 31.3384C127.118 32.0928 127.294 33.5808 125.063 33.9545C122.948 34.3087 119.362 32.6465 116.249 27.798C113.834 24.0384 116.153 21.6274 118.021 21.015C119.45 20.5095 121.358 19.4461 120.465 17.8842C119.748 16.6295 116.42 16.7631 113.662 19.0055C112.558 19.566 110.72 19.379 112.926 16.7631C115.133 14.1471 121.753 12.2782 123.039 17.2451Z" fill="url(#paint1_linear_1175_1573)"/>
  <path d="M126.143 5.57022C125.418 4.05198 124.288 2.43487 122.271 2.04311C122.637 4.64449 121.909 7.10902 121.291 8.2469C118.552 13.2936 120.616 17.3358 124.478 18.6741C128.132 19.9408 132.016 18.1644 132.963 15.344C133.909 12.5236 132.963 9.33089 129.563 8.46502C127.667 7.80808 126.868 7.08846 126.143 5.57022Z" fill="url(#paint2_linear_1175_1573)"/>
  <ellipse cx="0.85959" cy="0.870599" rx="0.85959" ry="0.870599" transform="matrix(-0.944864 -0.327464 -0.318167 0.948035 131.621 12.5102)" fill="white"/>
  <ellipse cx="0.85959" cy="0.870599" rx="0.85959" ry="0.870599" transform="matrix(-0.944864 -0.327464 -0.318167 0.948035 127.943 11.3889)" fill="white"/>
  <path d="M129.626 14.9371C128.302 14.9371 126.99 14.3142 126.5 14.0028C126.194 14.5011 125.397 16.2452 126.684 16.6189C127.971 16.9927 129.013 15.8715 129.626 14.9371Z" fill="white" stroke="white" stroke-width="0.401432" stroke-linejoin="round"/>
  <defs>
    <linearGradient id="paint0_linear_1175_1573" x1="137" y1="44" x2="3.57212e-07" y2="44" gradientUnits="userSpaceOnUse">
      <stop stop-color="#2B66F5"/>
      <stop offset="1" stop-color="#4BA6FE"/>
    </linearGradient>
    <linearGradient id="paint1_linear_1175_1573" x1="130.037" y1="22.456" x2="115.208" y2="25.9532" gradientUnits="userSpaceOnUse">
      <stop stop-color="#2B66F5"/>
      <stop offset="0.656282" stop-color="#4BA6FE"/>
    </linearGradient>
    <linearGradient id="paint2_linear_1175_1573" x1="119.893" y1="9.12826" x2="133.515" y2="13.6997" gradientUnits="userSpaceOnUse">
      <stop stop-color="#2B66F5"/>
      <stop offset="1" stop-color="#4BA6FE"/>
    </linearGradient>
  </defs>
</svg>
