<svg width="10" height="10" viewBox="0 0 10 10" fill="none" xmlns="http://www.w3.org/2000/svg">
  <path fill-rule="evenodd" clip-rule="evenodd" d="M5.75 1C5.75 0.585786 5.41421 0.25 5 0.25C4.58579 0.25 4.25 0.585786 4.25 1L4.25 3.18994L2.70172 1.64166C2.40882 1.34877 1.93395 1.34877 1.64106 1.64166C1.34816 1.93455 1.34816 2.40943 1.64106 2.70232L3.18874 4.25H1C0.585786 4.25 0.25 4.58579 0.25 5C0.25 5.41421 0.585786 5.75 1 5.75H3.18971L1.64132 7.2984C1.34842 7.59129 1.34842 8.06617 1.64132 8.35906C1.93421 8.65195 2.40908 8.65195 2.70198 8.35906L4.25 6.81103L4.25 9C4.25 9.41421 4.58579 9.75 5 9.75C5.41421 9.75 5.75 9.41421 5.75 9V6.81126L7.29791 8.35917C7.5908 8.65207 8.06568 8.65207 8.35857 8.35917C8.65146 8.06628 8.65146 7.59141 8.35857 7.29851L6.81006 5.75H9C9.41421 5.75 9.75 5.41421 9.75 5C9.75 4.58579 9.41421 4.25 9 4.25H6.81104L8.35883 2.7022C8.65172 2.40931 8.65172 1.93444 8.35883 1.64154C8.06594 1.34865 7.59106 1.34865 7.29817 1.64154L5.75 3.18971V1Z" fill="#FE2525"/>
</svg>
