<svg width="84" height="84" viewBox="0 0 84 84" fill="none" xmlns="http://www.w3.org/2000/svg">
  <rect width="84" height="84" rx="12" fill="#FFF9E6"/>
  <rect x="7" y="62" width="70" height="16" rx="8" fill="url(#paint0_linear_1053_1727)"/>
  <path d="M34.328 71.996H35.684V73.4H34.328V75.416H32.804V73.4H28.028V72.176L32.288 65.444H34.328V71.996ZM32.804 67.268L29.888 71.996H32.804V67.268ZM40.4818 75.416C39.7858 75.416 39.1618 75.304 38.6098 75.08C38.0658 74.856 37.6378 74.524 37.3258 74.084C37.0138 73.652 36.8578 73.128 36.8578 72.512C36.8578 72.008 37.0138 71.548 37.3258 71.132C37.6378 70.716 38.0898 70.392 38.6818 70.16C38.1538 69.952 37.7578 69.664 37.4938 69.296C37.2378 68.92 37.1098 68.492 37.1098 68.012C37.1098 67.428 37.2538 66.932 37.5418 66.524C37.8378 66.108 38.2378 65.796 38.7418 65.588C39.2538 65.372 39.8338 65.264 40.4818 65.264C41.1378 65.264 41.7178 65.372 42.2218 65.588C42.7338 65.796 43.1338 66.108 43.4218 66.524C43.7098 66.932 43.8538 67.428 43.8538 68.012C43.8538 68.492 43.7218 68.92 43.4578 69.296C43.2018 69.664 42.8098 69.952 42.2818 70.16C42.8738 70.392 43.3258 70.716 43.6378 71.132C43.9498 71.548 44.1058 72.008 44.1058 72.512C44.1058 73.128 43.9498 73.652 43.6378 74.084C43.3258 74.524 42.8978 74.856 42.3538 75.08C41.8098 75.304 41.1858 75.416 40.4818 75.416ZM40.4818 69.536C41.0578 69.536 41.5098 69.408 41.8378 69.152C42.1658 68.888 42.3298 68.536 42.3298 68.096C42.3298 67.648 42.1658 67.296 41.8378 67.04C41.5098 66.776 41.0578 66.644 40.4818 66.644C39.9058 66.644 39.4538 66.776 39.1258 67.04C38.8058 67.296 38.6458 67.648 38.6458 68.096C38.6458 68.536 38.8058 68.888 39.1258 69.152C39.4538 69.408 39.9058 69.536 40.4818 69.536ZM40.4818 74.036C41.1378 74.036 41.6498 73.892 42.0178 73.604C42.3938 73.316 42.5818 72.928 42.5818 72.44C42.5818 71.96 42.3898 71.576 42.0058 71.288C41.6298 71 41.1218 70.856 40.4818 70.856C39.8418 70.856 39.3298 71 38.9458 71.288C38.5698 71.576 38.3818 71.96 38.3818 72.44C38.3818 72.928 38.5658 73.316 38.9338 73.604C39.3098 73.892 39.8258 74.036 40.4818 74.036ZM47.5309 70.628C47.1229 70.628 46.7469 70.54 46.4029 70.364C46.0669 70.18 45.7989 69.92 45.5989 69.584C45.3989 69.248 45.2989 68.852 45.2989 68.396V67.484C45.2989 67.036 45.3989 66.644 45.5989 66.308C45.7989 65.972 46.0669 65.716 46.4029 65.54C46.7469 65.356 47.1229 65.264 47.5309 65.264C47.9389 65.264 48.3109 65.356 48.6469 65.54C48.9909 65.716 49.2629 65.972 49.4629 66.308C49.6629 66.644 49.7629 67.036 49.7629 67.484V68.396C49.7629 68.852 49.6629 69.248 49.4629 69.584C49.2629 69.92 48.9909 70.18 48.6469 70.364C48.3109 70.54 47.9389 70.628 47.5309 70.628ZM48.1309 75.236H46.4269L53.2309 65.444H54.9349L48.1309 75.236ZM47.5309 69.368C47.7949 69.368 48.0109 69.272 48.1789 69.08C48.3469 68.888 48.4309 68.628 48.4309 68.3V67.592C48.4309 67.264 48.3469 67.004 48.1789 66.812C48.0109 66.62 47.7949 66.524 47.5309 66.524C47.2669 66.524 47.0509 66.62 46.8829 66.812C46.7229 67.004 46.6429 67.264 46.6429 67.592V68.3C46.6429 68.628 46.7229 68.888 46.8829 69.08C47.0509 69.272 47.2669 69.368 47.5309 69.368ZM53.7829 75.416C53.3749 75.416 52.9989 75.324 52.6549 75.14C52.3189 74.964 52.0509 74.708 51.8509 74.372C51.6509 74.036 51.5509 73.64 51.5509 73.184V72.272C51.5509 71.824 51.6509 71.432 51.8509 71.096C52.0509 70.76 52.3189 70.504 52.6549 70.328C52.9989 70.144 53.3749 70.052 53.7829 70.052C54.1909 70.052 54.5629 70.144 54.8989 70.328C55.2429 70.504 55.5149 70.76 55.7149 71.096C55.9149 71.432 56.0149 71.824 56.0149 72.272V73.184C56.0149 73.64 55.9149 74.036 55.7149 74.372C55.5149 74.708 55.2429 74.964 54.8989 75.14C54.5629 75.324 54.1909 75.416 53.7829 75.416ZM53.7829 74.156C54.0469 74.156 54.2629 74.06 54.4309 73.868C54.5989 73.676 54.6829 73.416 54.6829 73.088V72.38C54.6829 72.052 54.5989 71.792 54.4309 71.6C54.2629 71.408 54.0469 71.312 53.7829 71.312C53.5189 71.312 53.3029 71.408 53.1349 71.6C52.9749 71.792 52.8949 72.052 52.8949 72.38V73.088C52.8949 73.416 52.9749 73.676 53.1349 73.868C53.3029 74.06 53.5189 74.156 53.7829 74.156Z" fill="white"/>
  <path d="M55.7736 35.4972C51.9389 35.9715 46.4238 32.3073 47.0275 30.2659L42.3833 34.1633C43.6642 37.0553 49.9547 40.6172 53.7592 40.1414C58.1577 39.5912 61.7627 36.703 61.0883 34.8197C60.4138 32.9364 59.6083 35.0228 55.7736 35.4972Z" fill="#3982FA" stroke="#3982FA" stroke-width="0.492647" stroke-linejoin="round"/>
  <path d="M26.7947 47.1668C29.5882 45.0611 30.698 42.0828 31.6945 39.3463L37.8111 42.446C39.5158 44.7611 35.9153 49.6873 31.6945 51.6798C28.5419 53.1681 27.4832 53.7853 28.0848 55.4146C28.6864 57.0438 23.1405 57.0525 22.3693 54.9887C21.5981 52.9248 21.5979 51.0841 26.7947 47.1668Z" fill="#3982FA" stroke="#3982FA" stroke-width="0.492647" stroke-linejoin="round"/>
  <path d="M39.3544 29.0276C43.3676 29.6604 43.0275 26.3044 42.1137 22.7546L44.4489 20.6429C44.4796 20.0667 44.6711 20.104 44.7296 20.3891L44.4489 20.6429C44.3975 21.6089 44.7981 24.2992 47.0355 30.4367C50.7159 40.5324 44.8538 46.1093 42.4002 46.2946C45.7817 53.449 47.5941 51.2555 49.443 51.9802C51.2814 52.7008 52.2405 54.9147 48.9126 56.5313C45.7593 58.0631 39.1061 55.9562 33.5461 48.4761C29.89 43.5574 30.8015 39.4023 32.8982 36.9391C34.3862 35.1909 35.6055 35.0821 34.7031 34.2317C33.0031 32.6299 30.1908 35.435 27.5596 38.5525C26.8167 39.6215 23.1173 40.5 25.3778 35.435C27.6382 30.37 32.2965 27.9146 39.3544 29.0276Z" fill="url(#paint1_linear_1053_1727)"/>
  <path d="M44.4489 20.6429C44.3975 21.6089 44.7981 24.2992 47.0355 30.4367C50.7159 40.5324 44.8538 46.1093 42.4002 46.2946C45.7817 53.449 47.5941 51.2555 49.443 51.9802C51.2814 52.7008 52.2405 54.9147 48.9126 56.5313C45.7593 58.0631 39.1061 55.9562 33.5461 48.4761C29.89 43.5574 30.8015 39.4023 32.8982 36.9391C34.3862 35.1909 35.6055 35.0821 34.7031 34.2317C33.0031 32.6299 30.1908 35.435 27.5596 38.5525C26.8167 39.6215 23.1173 40.5 25.3778 35.435C27.6382 30.37 32.2965 27.9146 39.3544 29.0276C43.3676 29.6604 43.0275 26.3044 42.1137 22.7546L44.4489 20.6429ZM44.4489 20.6429C44.4796 20.0667 44.6711 20.104 44.7296 20.3891L44.4489 20.6429Z" stroke="url(#paint2_linear_1053_1727)" stroke-width="0.492647" stroke-linejoin="round"/>
  <path d="M42.9447 11.2386C41.2765 9.09456 38.9271 6.93253 35.5685 7.00161C37.0246 10.9734 36.6844 15.1017 36.0769 17.1035C33.3826 25.9818 38.0382 31.6448 44.6652 32.4389C50.9375 33.1905 56.5574 29.0725 57.1282 24.3094C57.6989 19.5464 55.1158 14.841 49.3855 14.6339C46.1325 14.2441 44.613 13.3827 42.9447 11.2386Z" fill="url(#paint3_linear_1053_1727)"/>
  <circle cx="1.40381" cy="1.40381" r="1.40381" transform="matrix(-0.992898 -0.118972 -0.118972 0.992898 54.0327 20.3032)" fill="white"/>
  <circle cx="1.40381" cy="1.40381" r="1.40381" transform="matrix(-0.992898 -0.118972 -0.118972 0.992898 47.7722 19.7881)" fill="white"/>
  <path d="M46.3383 24.395C47.0367 25.5081 49.7441 27.0122 51.6531 24.8031" stroke="white" stroke-width="0.601632" stroke-linecap="round" stroke-linejoin="round"/>
  <defs>
    <linearGradient id="paint0_linear_1053_1727" x1="77" y1="70" x2="7" y2="70" gradientUnits="userSpaceOnUse">
      <stop stop-color="#FFA800"/>
      <stop offset="1" stop-color="#FFE074"/>
    </linearGradient>
    <linearGradient id="paint1_linear_1053_1727" x1="52.7176" y1="33.807" x2="31.1576" y2="46.2689" gradientUnits="userSpaceOnUse">
      <stop stop-color="#2B66F5"/>
      <stop offset="0.656282" stop-color="#4BA6FE"/>
    </linearGradient>
    <linearGradient id="paint2_linear_1053_1727" x1="52.7176" y1="33.807" x2="31.1576" y2="46.2689" gradientUnits="userSpaceOnUse">
      <stop stop-color="#2B66F5"/>
      <stop offset="0.62593" stop-color="#4BA6FE"/>
    </linearGradient>
    <linearGradient id="paint3_linear_1053_1727" x1="57.2056" y1="19.764" x2="35.2992" y2="19.764" gradientUnits="userSpaceOnUse">
      <stop stop-color="#2B66F5"/>
      <stop offset="1" stop-color="#4BA6FE"/>
    </linearGradient>
  </defs>
</svg>
